# xmcd
#
# Track frame offsets:
#	150
#	16670
#	34825
#	52980
#	71496
#	90960
#	101555
#	123321
#	146210
#	165862
#	185716
#	202079
#	222007
#	230888
#	256290
#	266879
#
# Disc length: 3820 seconds
#
# Revision: 0
# Processed by: cddbd v1.5.1PL2 Copyright (c) Steve Scherf et al.
# Submitted via: dBpowerAMP V4.0
#
DISCID=e20eea10
DTITLE=Carl Thomas - Let's Talk About It
DYEAR=2004
DGENRE=R&B
TTITLE0=Let's Talk About It (Interlude) 
TTITLE1=Anything 
TTITLE2=My First Love
TTITLE3=She Is
TTITLE4=Know It's Alright (Interlude)
TTITLE5=Make It Alright
TTITLE6=The Baby Maker
TTITLE7=Dramer
TTITLE8=A Promise
TTITLE9=But Me
TTITLE10=All You've Given 
TTITLE11=All My Love (Interlude)
TTITLE12=Let Me Know
TTITLE13=Rebound
TTITLE14=That's What You Are (Interlude)
TTITLE15=Work It Out 
EXTD=
EXTT0=
EXTT1=
EXTT2=
EXTT3=
EXTT4=
EXTT5=
EXTT6=
EXTT7=
EXTT8=
EXTT9=
EXTT10=
EXTT11=
EXTT12=
EXTT13=
EXTT14=
EXTT15=
PLAYORDER=
